# xmcd
#
# Track frame offsets:
# 150
# 16612
# 30727
# 42328
# 46996
# 57965
# 111052
# 113516
# 117854
# 141093
# 216760
# 229040
# 242644
# 254711
# 268036
# 279958
# 292558
# 303010
# 310665
# 324228
#
# Disc length: 4410 seconds
#
# Revision: 0
# Processed by: cddbd v1.5PL3 Copyright (c) Steve Scherf et al.
# Submitted via: Audion 2.5.0 (http://www.panic.com/audion/)
#
DISCID=05113814
DTITLE=SYD BARRET - LUCY LEAVE AND OTHER RARIRTIES
DYEAR=1900
DGENRE=
TTITLE0=Gigolo Aunt
TTITLE1=Terrapin
TTITLE2=Baby Lemonade
TTITLE3=Effervescing Elephant
TTITLE4=Two Of A Kind
TTITLE5=Rat Race
TTITLE6=Interstellar Overdrive,Take5
TTITLE7=Interstellar Overdrive,Take2
TTITLE8=Interstellar Overdrive, Ext.
TTITLE9=Interstellar Overdrive,Short
TTITLE10=Lucy Leave
TTITLE11=I'm A Kingbee
TTITLE12=Dominoes
TTITLE13=Milky Way
TTITLE14=Swan Lee
TTITLE15=Word Song
TTITLE16=Birdie Hop
TTITLE17=Long Gone
TTITLE18=Dark Globe
TTITLE19=Madcap's Embrace
EXTD=
EXTT0=
EXTT1=
EXTT2=
EXTT3=
EXTT4=
EXTT5=
EXTT6=
EXTT7=
EXTT8=
EXTT9=
EXTT10=
EXTT11=
EXTT12=
EXTT13=
EXTT14=
EXTT15=
EXTT16=
EXTT17=
EXTT18=
EXTT19=
PLAYORDER=
